<?xml version="1.0" encoding="UTF-8" standalone="no"?>
<!-- Created with Inkscape (http://www.inkscape.org/) -->

<svg
   xmlns:dc="http://purl.org/dc/elements/1.1/"
   xmlns:cc="http://creativecommons.org/ns#"
   xmlns:rdf="http://www.w3.org/1999/02/22-rdf-syntax-ns#"
   xmlns:svg="http://www.w3.org/2000/svg"
   xmlns="http://www.w3.org/2000/svg"
   xmlns:sodipodi="http://sodipodi.sourceforge.net/DTD/sodipodi-0.dtd"
   xmlns:inkscape="http://www.inkscape.org/namespaces/inkscape"
   width="297mm"
   height="210mm"
   id="svg3490"
   version="1.1"
   inkscape:version="0.48.2 r9819"
   sodipodi:docname="avatar2.svg">
  <defs
     id="defs3492">
    <clipPath
       clipPathUnits="userSpaceOnUse"
       id="clipPath32">
      <path
         inkscape:connector-curvature="0"
         d="m 0,595.28 841.89,0 L 841.89,0 0,0 0,595.28 z"
         id="path34" />
    </clipPath>
    <clipPath
       clipPathUnits="userSpaceOnUse"
       id="clipPath56">
      <path
         inkscape:connector-curvature="0"
         d="m 346.243,512.598 234.205,0 0,-257.905 -234.205,0 0,257.905 z"
         id="path58" />
    </clipPath>
  </defs>
  <sodipodi:namedview
     inkscape:document-units="mm"
     pagecolor="#ffffff"
     bordercolor="#666666"
     borderopacity="1.0"
     inkscape:pageopacity="0.0"
     inkscape:pageshadow="2"
     inkscape:zoom="0.43415836"
     inkscape:cx="490"
     inkscape:cy="380"
     inkscape:current-layer="layer1"
     id="namedview3494"
     showgrid="false"
     inkscape:window-width="1280"
     inkscape:window-height="962"
     inkscape:window-x="-4"
     inkscape:window-y="-4"
     inkscape:window-maximized="1" />
  <metadata
     id="metadata3496">
    <rdf:RDF>
      <cc:Work
         rdf:about="">
        <dc:format>image/svg+xml</dc:format>
        <dc:type
           rdf:resource="http://purl.org/dc/dcmitype/StillImage" />
        <dc:title></dc:title>
      </cc:Work>
    </rdf:RDF>
  </metadata>
  <g
     inkscape:label="Layer 1"
     inkscape:groupmode="layer"
     id="layer1">
    <g
       id="g12"
       transform="matrix(1.4210272,0,0,-1.2276698,236.40196,690.8844)">
      <path
         inkscape:connector-curvature="0"
         d="M 0,0 -4.209,59.054 -28.695,0 -46.09,0 l -6.204,73.79 12.963,0 4.543,-58.279 24.485,58.279 16.842,0 3.988,-58.833 23.821,58.833 13.849,0 L 17.396,0 0,0 z"
         style="fill:#414042;fill-opacity:1;fill-rule:nonzero;stroke:none"
         id="path14" />
    </g>
    <g
       id="g16"
       transform="matrix(2.0579429,0,0,-2.0409843,409.80057,690.8844)">
      <path
         inkscape:connector-curvature="0"
         d="M 0,0 -2.565,35.993 -17.489,0 l -10.603,0 -3.781,44.974 7.901,0 2.769,-35.52 14.924,35.52 10.264,0 2.431,-35.858 14.519,35.858 8.441,0 L 10.604,0 0,0 z"
         style="fill:#414042;fill-opacity:1;fill-rule:nonzero;stroke:none"
         id="path18" />
    </g>
    <g
       id="g20"
       transform="matrix(2.0579429,0,0,-2.0409843,486.22578,599.09398)">
      <path
         inkscape:connector-curvature="0"
         d="m 0,0 8.374,0 -7.9,-44.974 -8.375,0 L 0,0 z"
         style="fill:#414042;fill-opacity:1;fill-rule:nonzero;stroke:none"
         id="path22" />
    </g>
    <g
       id="g24"
       transform="matrix(2.0579429,0,0,-2.0409843,540.42172,622.79858)">
      <path
         inkscape:connector-curvature="0"
         d="m 0,0 -5.875,-33.359 -8.172,0 7.902,44.973 10.465,0 11.143,-34.236 6.012,34.236 8.102,0 -7.899,-44.973 -10.535,0 L 0,0 z"
         style="fill:#414042;fill-opacity:1;fill-rule:nonzero;stroke:none"
         id="path26" />
    </g>
    <g
       id="g30"
       clip-path="url(#clipPath32)"
       transform="matrix(2.0579429,0,0,-2.0409844,-356.2024,1076.507)">
      <g
         id="g36"
         transform="translate(497.6104,220.0029)">
        <path
           inkscape:connector-curvature="0"
           d="m 0,0 c 0.135,0.742 0.2,1.486 0.2,2.025 0,2.905 -1.551,4.526 -6.415,4.526 l -7.561,0 -5.337,-30.255 7.968,0 c 5.877,0 7.363,2.228 8.172,6.821 L 0,0 z m -28.77,-31.063 7.969,44.973 16.478,0 C 5.13,13.91 8.71,8.914 8.71,3.174 8.71,2.227 8.644,1.417 8.44,0.337 L 4.996,-19.178 C 3.779,-26.067 0.606,-31.063 -11.21,-31.063 l -17.56,0 z"
           style="fill:#414042;fill-opacity:1;fill-rule:nonzero;stroke:none"
           id="path38" />
      </g>
      <g
         id="g40"
         transform="translate(511.9883,195.8271)">
        <path
           inkscape:connector-curvature="0"
           d="m 0,0 25.256,30.93 -20.864,0 1.282,7.156 29.376,0 -0.069,-6.955 -25.39,-30.997 20.529,0 -1.285,-7.022 -28.698,0 L 0,0 z"
           style="fill:#414042;fill-opacity:1;fill-rule:nonzero;stroke:none"
           id="path42" />
      </g>
      <g
         id="g44"
         transform="translate(559.1211,233.9131)">
        <path
           inkscape:connector-curvature="0"
           d="m 0,0 8.375,0 -7.9,-44.974 -8.374,0 L 0,0 z"
           style="fill:#414042;fill-opacity:1;fill-rule:nonzero;stroke:none"
           id="path46" />
      </g>
      <g
         id="g48"
         transform="translate(579.3125,233.9131)">
        <path
           inkscape:connector-curvature="0"
           d="m 0,0 27.617,0 -1.35,-7.359 -19.176,0 -1.892,-10.739 17.76,0 -1.282,-7.361 -17.762,0 -2.161,-12.155 19.179,0 -1.216,-7.36 -27.619,0 L 0,0 z"
           style="fill:#414042;fill-opacity:1;fill-rule:nonzero;stroke:none"
           id="path50" />
      </g>
      <g
         id="g52">
        <g
           id="g54" />
        <g
           id="g60">
          <g
             clip-path="url(#clipPath56)"
             id="g62">
            <g
               transform="translate(580.4199,316.9512)"
               id="g64">
              <path
                 inkscape:connector-curvature="0"
                 d="m 0,0 c 0.324,-1.944 -2.229,-2.593 -3.457,-3.457 -25.025,-17.719 -54.885,-35.046 -88.931,-43.973 21.906,11.371 44.148,22.392 63.244,36.559 -75.614,-9.859 -143.531,-27.416 -205.033,-51.387 1.77,2.836 6.078,4.821 9.886,6.928 25.633,14.167 56.829,25.74 88.431,34.573 C -94.98,-9.318 -51.049,-0.148 0,0"
                 style="fill:#ff5200;fill-opacity:1;fill-rule:nonzero;stroke:none"
                 id="path66" />
            </g>
            <g
               transform="translate(534.4756,485.4121)"
               id="g68">
              <path
                 inkscape:connector-curvature="0"
                 d="m 0,0 c -5.213,-0.499 -9.494,5.213 -14.328,5.929 -10.44,1.566 -21.109,-10.237 -31.129,-7.901 -5.402,1.27 -8.94,8.954 -14.315,9.886 -9.103,1.58 -21.447,-6.198 -21.245,-14.828 7.226,-4.187 15.18,-6.118 22.23,-9.872 20.365,-10.859 37.044,-26.835 48.901,-46.943 14.802,-25.08 23.459,-70.605 7.415,-102.76 -63.973,18.164 -128.081,-7.199 -165.004,-35.573 -0.972,-0.742 -5.402,-4.267 -4.457,-2.471 33.857,33.817 91.429,64.648 162.046,50.401 4.687,10.304 7.01,23.579 5.929,38.529 -4.646,64.973 -52.453,99.654 -109.674,113.631 9.981,0.919 19.704,-2.687 28.658,-4.443 3.984,10.993 7.373,22.595 11.358,33.601 0.716,-5.334 -2.58,-10.926 -2.958,-16.8 5.699,1.134 12.897,5.577 21.243,1.471 4.267,-2.092 6.955,-8.778 10.872,-9.872 9.453,-2.646 17.205,6.55 26.173,6.415 C -10.129,8.292 -7.279,2.796 0,0"
                 style="fill:#1c75bc;fill-opacity:1;fill-rule:nonzero;stroke:none"
                 id="path70" />
            </g>
            <g
               transform="translate(451.4746,455.2832)"
               id="g72">
              <path
                 inkscape:connector-curvature="0"
                 d="m 0,0 c 4.821,-9.859 7.428,-21.581 6.428,-36.559 -2.755,-41.054 -26.646,-69.875 -51.386,-88.43 10.034,11.222 21.216,26.24 30.143,43.472 11.465,22.149 21.729,55.587 10.372,82.016 -8.563,-28.333 -16.693,-57.085 -26.673,-83.987 -0.783,3.443 2.04,11.749 3.943,15.8 3.714,17.381 8.847,37.747 14.329,56.33 C -9.589,-0.352 -3.89,9.399 -13.829,16.3 -7.819,13.599 -3.269,6.698 0,0"
                 style="fill:#1c75bc;fill-opacity:1;fill-rule:nonzero;stroke:none"
                 id="path74" />
            </g>
          </g>
        </g>
      </g>
    </g>
  </g>
</svg>
